<svg width="9" height="7" viewBox="0 0 9 7" fill="none" xmlns="http://www.w3.org/2000/svg">
<path d="M8.20733 0H7.19971C6.98057 0 6.77217 0.105273 6.64326 0.285742L3.26591 4.96934L1.73622 2.84668C1.60731 2.66836 1.40106 2.56094 1.17977 2.56094H0.172148C0.0324988 2.56094 -0.0491421 2.71992 0.0324988 2.83379L2.70946 6.54629C2.7727 6.63456 2.85607 6.70648 2.95265 6.75609C3.04923 6.80571 3.15625 6.83159 3.26483 6.83159C3.37342 6.83159 3.48043 6.80571 3.57702 6.75609C3.6736 6.70648 3.75697 6.63456 3.82021 6.54629L8.34483 0.272852C8.42862 0.158985 8.34698 0 8.20733 0V0Z" fill="#6F73EE"/>
</svg>
