<svg width="20" height="20" viewBox="0 0 20 20" fill="none" xmlns="http://www.w3.org/2000/svg">
<g clip-path="url(#clip0_5601_355)">
<path d="M11.9042 1.62234C12.2007 1.49293 12.5463 1.62863 12.6757 1.92508L14.7646 6.70731H18.6161C19.0428 6.70737 19.439 6.89762 19.7031 7.22879C19.9622 7.554 20.0581 7.97238 19.9658 8.37625L17.9081 17.3606C17.7645 17.988 17.2095 18.4261 16.5585 18.4261H3.44135C2.79037 18.4261 2.23537 17.988 2.09174 17.3606L0.0341187 8.37625C-0.0581856 7.97239 0.0376428 7.55399 0.296814 7.22879C0.560867 6.89759 0.957098 6.70738 1.38373 6.70731H5.23529L7.32416 1.92508C7.45362 1.62855 7.79917 1.49294 8.09564 1.62234C8.39209 1.75183 8.52762 2.09734 8.39838 2.39383L6.51459 6.70731H13.4853L11.6015 2.39383C11.4722 2.09734 11.6078 1.75179 11.9042 1.62234ZM1.38373 7.87918C1.29075 7.87927 1.23656 7.92944 1.21283 7.95926C1.18723 7.99134 1.16058 8.04508 1.1767 8.11551L3.23334 17.0989C3.25392 17.1888 3.34185 17.2542 3.44135 17.2542H16.5585C16.6579 17.2542 16.7458 17.1896 16.7665 17.0999L18.8232 8.11551C18.8393 8.04513 18.8126 7.99137 18.787 7.95926C18.7633 7.92943 18.7092 7.87924 18.6161 7.87918H15.2763L15.4296 8.23074C15.5592 8.52731 15.4235 8.87274 15.1269 9.00223C15.0506 9.03558 14.9708 9.05203 14.8925 9.05203C14.6669 9.0519 14.4516 8.92044 14.3554 8.70047L13.997 7.87918H6.00287L5.64447 8.70047C5.54828 8.92041 5.33303 9.05193 5.10736 9.05203C5.02904 9.05203 4.94931 9.03559 4.87299 9.00223C4.57645 8.87268 4.44077 8.52729 4.57025 8.23074L4.72357 7.87918H1.38373Z" fill="#6F73EE"/>
<path d="M11.9042 1.62234C12.2007 1.49293 12.5463 1.62863 12.6757 1.92508L14.7646 6.70731H18.6161C19.0428 6.70737 19.439 6.89762 19.7031 7.22879C19.9622 7.554 20.0581 7.97238 19.9658 8.37625L17.9081 17.3606C17.7645 17.988 17.2095 18.4261 16.5585 18.4261H3.44135C2.79037 18.4261 2.23537 17.988 2.09174 17.3606L0.0341187 8.37625C-0.0581856 7.97239 0.0376428 7.55399 0.296814 7.22879C0.560867 6.89759 0.957098 6.70738 1.38373 6.70731H5.23529L7.32416 1.92508C7.45362 1.62855 7.79917 1.49294 8.09564 1.62234C8.39209 1.75183 8.52762 2.09734 8.39838 2.39383L6.51459 6.70731H13.4853L11.6015 2.39383C11.4722 2.09734 11.6078 1.75179 11.9042 1.62234ZM1.38373 7.87918C1.29075 7.87927 1.23656 7.92944 1.21283 7.95926C1.18723 7.99134 1.16058 8.04508 1.1767 8.11551L3.23334 17.0989C3.25392 17.1888 3.34185 17.2542 3.44135 17.2542H16.5585C16.6579 17.2542 16.7458 17.1896 16.7665 17.0999L18.8232 8.11551C18.8393 8.04513 18.8126 7.99137 18.787 7.95926C18.7633 7.92943 18.7092 7.87924 18.6161 7.87918H15.2763L15.4296 8.23074C15.5592 8.52731 15.4235 8.87274 15.1269 9.00223C15.0506 9.03558 14.9708 9.05203 14.8925 9.05203C14.6669 9.0519 14.4516 8.92044 14.3554 8.70047L13.997 7.87918H6.00287L5.64447 8.70047C5.54828 8.92041 5.33303 9.05193 5.10736 9.05203C5.02904 9.05203 4.94931 9.03559 4.87299 9.00223C4.57645 8.87268 4.44077 8.52729 4.57025 8.23074L4.72357 7.87918H1.38373Z" stroke="#6F73EE"/>
<path d="M6.48438 10.4188C6.80801 10.4188 7.07031 10.6812 7.07031 11.0048V15.3016C7.07031 15.6252 6.80797 15.8876 6.48438 15.8876C6.16078 15.8876 5.89844 15.6252 5.89844 15.3016V11.0048C5.89844 10.6812 6.16078 10.4188 6.48438 10.4188Z" fill="#6F73EE"/>
<path d="M6.48438 10.4188C6.80801 10.4188 7.07031 10.6812 7.07031 11.0048V15.3016C7.07031 15.6252 6.80797 15.8876 6.48438 15.8876C6.16078 15.8876 5.89844 15.6252 5.89844 15.3016V11.0048C5.89844 10.6812 6.16078 10.4188 6.48438 10.4188Z" stroke="#6F73EE"/>
<path d="M10 10.4188C10.3236 10.4188 10.5859 10.6812 10.5859 11.0048V15.3016C10.5859 15.6252 10.3236 15.8876 10 15.8876C9.67641 15.8876 9.41406 15.6252 9.41406 15.3016V11.0048C9.41406 10.6812 9.67641 10.4188 10 10.4188Z" fill="#6F73EE"/>
<path d="M10 10.4188C10.3236 10.4188 10.5859 10.6812 10.5859 11.0048V15.3016C10.5859 15.6252 10.3236 15.8876 10 15.8876C9.67641 15.8876 9.41406 15.6252 9.41406 15.3016V11.0048C9.41406 10.6812 9.67641 10.4188 10 10.4188Z" stroke="#6F73EE"/>
<path d="M13.5156 10.4188C13.8392 10.4188 14.1015 10.6812 14.1016 11.0048V15.3016C14.1016 15.6252 13.8392 15.8876 13.5156 15.8876C13.192 15.8876 12.9297 15.6252 12.9297 15.3016V11.0048C12.9297 10.6812 13.192 10.4188 13.5156 10.4188Z" fill="#6F73EE"/>
<path d="M13.5156 10.4188C13.8392 10.4188 14.1015 10.6812 14.1016 11.0048V15.3016C14.1016 15.6252 13.8392 15.8876 13.5156 15.8876C13.192 15.8876 12.9297 15.6252 12.9297 15.3016V11.0048C12.9297 10.6812 13.192 10.4188 13.5156 10.4188Z" stroke="#6F73EE"/>
</g>
<defs>
<clipPath id="clip0_5601_355">
<rect width="20" height="20" fill="white"/>
</clipPath>
</defs>
</svg>
