<svg width="400" height="400" viewBox="0 0 400 400" fill="none" xmlns="http://www.w3.org/2000/svg">
<rect width="400" height="400" rx="50" fill="#6F73EE"/>
<g clip-path="url(#clip0_1_14917)">
<path d="M249.407 228.467L223.157 138.623L240.813 136.717C244.469 136.311 247.125 133.03 246.719 129.373C246.313 125.717 243.063 123.03 239.375 123.467L188.407 128.967C184.75 129.373 182.094 132.655 182.5 136.311C182.875 139.717 185.75 142.248 189.125 142.248C189.375 142.248 189.594 142.248 189.844 142.217L209.719 140.092L236.469 231.842C231.188 234.936 227.219 239.936 225.469 245.873H174.532C171.594 235.842 162.25 228.467 151.125 228.467C137.657 228.467 126.75 239.248 126.75 252.53C126.75 265.811 137.657 276.592 151.125 276.592C162.25 276.592 171.594 269.248 174.532 259.186H225.438C228.375 269.217 237.719 276.592 248.844 276.592C262.313 276.592 273.219 265.811 273.219 252.53C273.219 239.405 262.625 228.748 249.407 228.467Z" fill="white"/>
</g>
<defs>
<clipPath id="clip0_1_14917">
<rect width="160" height="160" fill="white" transform="translate(120 120)"/>
</clipPath>
</defs>
</svg>
