<!-- SVG SPRITE -->
<svg class="sprite" aria-hidden="true" focusable="false" xmlns="http://www.w3.org/2000/svg">

	<symbol id="icon-search" viewBox="0 0 24 24">
		<circle cx="11" cy="11" r="8" />
		<path d="m21 21-4.3-4.3" />
	</symbol>

	<symbol id="icon-user" viewBox="0 0 24 24">
		<circle cx="12" cy="8" r="4" />
		<path d="M5 20c0-3.87 3.13-7 7-7s7 3.13 7 7" />
	</symbol>

	<symbol id="icon-cart" viewBox="0 0 20 20">
		<g clip-path="url(#clip0_1_16000)">
			<path
				d="M19.1523 7.25427H15.0031L12.6756 1.92486C12.5461 1.62833 12.2007 1.49282 11.9042 1.62239C11.6076 1.75189 11.4722 2.09732 11.6017 2.39388L13.7244 7.25431H6.27561L8.39827 2.39388C8.52776 2.09732 8.39237 1.75193 8.09581 1.62239C7.79929 1.49282 7.45382 1.62825 7.32436 1.92486L4.99686 7.25427H0.847685C0.304911 7.25427 -0.0979012 7.74564 0.0208488 8.26286L2.20581 17.7797C2.29257 18.1576 2.63608 18.4261 3.03265 18.4261H16.9673C17.3639 18.4261 17.7074 18.1576 17.7942 17.7797L19.9791 8.26286C20.0979 7.74568 19.695 7.25427 19.1523 7.25427ZM5.1071 9.0513C5.02882 9.0513 4.94925 9.03552 4.87288 9.00216C4.57632 8.87267 4.44089 8.52728 4.57042 8.23068L5.01057 7.22278H6.28933L5.64432 8.69966C5.54819 8.91993 5.33296 9.0513 5.1071 9.0513ZM7.0703 15.3011C7.0703 15.6247 6.80796 15.8871 6.48436 15.8871C6.16077 15.8871 5.89843 15.6247 5.89843 15.3011V11.0043C5.89843 10.6807 6.16077 10.4183 6.48436 10.4183C6.80796 10.4183 7.0703 10.6807 7.0703 11.0043V15.3011ZM10.5859 15.3011C10.5859 15.6247 10.3236 15.8871 9.99999 15.8871C9.6764 15.8871 9.41405 15.6247 9.41405 15.3011V11.0043C9.41405 10.6807 9.6764 10.4183 9.99999 10.4183C10.3236 10.4183 10.5859 10.6807 10.5859 11.0043V15.3011ZM14.1016 15.3011C14.1016 15.6247 13.8392 15.8871 13.5156 15.8871C13.192 15.8871 12.9297 15.6247 12.9297 15.3011V11.0043C12.9297 10.6807 13.192 10.4183 13.5156 10.4183C13.8392 10.4183 14.1016 10.6807 14.1016 11.0043V15.3011ZM15.1271 9.00216C15.0507 9.03552 14.9712 9.0513 14.8929 9.0513C14.667 9.0513 14.4518 8.91997 14.3556 8.6997L13.7106 7.22282H14.9894L15.4295 8.23071C15.5591 8.52728 15.4236 8.87267 15.1271 9.00216Z"
				fill="#6F73EE" />
		</g>
		<defs>
			<clipPath id="clip0_1_16000">
				<rect width="20" height="20" fill="white" />
			</clipPath>
		</defs>
	</symbol>

	<symbol id="icon-power" viewBox="0 0 24 24">
		<polyline points="13 2 3 14 12 14 11 22 21 10 12 10 13 2" />
	</symbol>

	<symbol id="icon-range" viewBox="0 0 24 24">
		<rect x="1" y="6" width="18" height="12" rx="2" />
		<line x1="23" y1="13" x2="23" y2="11" />
		<line x1="5" y1="12" x2="13" y2="12" />
	</symbol>

	<symbol id="icon-speed" viewBox="0 0 24 24">
		<path d="M22 12A10 10 0 1 1 2 12" />
		<line x1="12" y1="12" x2="17" y2="7" />
	</symbol>

	<symbol id="icon-weight" viewBox="0 0 24 24">
		<circle cx="12" cy="12" r="9" />
		<circle cx="12" cy="12" r="4" />
	</symbol>

	<symbol id="icon-close" viewBox="0 0 24 24">
		<line x1="18" y1="6" x2="6" y2="18" />
		<line x1="6" y1="6" x2="18" y2="18" />
	</symbol>

	<symbol id="icon-heart" viewBox="0 0 24 24">
		<path
			d="M20.84 4.61a5.5 5.5 0 0 0-7.78 0L12 5.67l-1.06-1.06a5.5 5.5 0 0 0-7.78 7.78l1.06 1.06L12 21.23l7.78-7.78 1.06-1.06a5.5 5.5 0 0 0 0-7.78z" />
	</symbol>

	<symbol id="icon-scales" viewBox="0 0 24 24">
		<path d="M16 16l3.5-7 3.5 7c-.5 1.5-1.5 2.5-3.5 2.5S16.5 17.5 16 16z" />
		<path d="M1 16l3.5-7 3.5 7C7.5 17.5 6.5 18.5 4.5 18.5S1.5 17.5 1 16z" />
		<line x1="12" y1="3" x2="12" y2="21" />
		<line x1="6" y1="5" x2="18" y2="5" />
		<line x1="8" y1="21" x2="16" y2="21" />
	</symbol>

	<symbol id="icon-vk" viewBox="0 0 24 24">
		<circle cx="12" cy="12" r="10" />
		<path d="M7 10v.5c0 2.5 1.5 4.5 4.5 4.5H13v2" />
		<path d="M13 14c2 0 3-1 3-2.5S15 9 13 9h-1V8" />
		<path d="M7 8v2" />
	</symbol>

	<symbol id="icon-whatsapp" viewBox="0 0 24 24">
		<path
			d="M21 11.5a8.38 8.38 0 0 1-.9 3.8 8.5 8.5 0 0 1-7.6 4.7 8.38 8.38 0 0 1-3.8-.9L3 21l1.9-5.7a8.38 8.38 0 0 1-.9-3.8 8.5 8.5 0 0 1 4.7-7.6 8.38 8.38 0 0 1 3.8-.9h.5a8.48 8.48 0 0 1 8 8v.5z" />
	</symbol>

	<symbol id="icon-telegram" viewBox="0 0 24 24">
		<line x1="22" y1="2" x2="11" y2="13" />
		<polygon points="22 2 15 22 11 13 2 9 22 2" />
	</symbol>

	<symbol id="icon-viber" viewBox="0 0 12 12">
		<g clip-path="url(#clip0_1_15970)">
			<path
				d="M6.40796 6.77975C6.27072 6.91708 6.04815 6.91708 5.91082 6.77975L4.31323 5.18216C4.24731 5.11624 4.21023 5.02679 4.21023 4.93359C4.21023 4.8403 4.24731 4.75095 4.31323 4.68494L4.59723 4.40103L3.76309 3.56689L3.07974 4.25024C2.84976 4.48022 2.84985 4.8544 3.07974 5.08438L6.0086 8.01343C6.11929 8.12411 6.26742 8.185 6.42572 8.185C6.58401 8.185 6.73214 8.12402 6.84283 8.01334L7.52618 7.33008L6.69204 6.49585L6.40796 6.77975Z"
				fill="#5D6C7B" />
			<path
				d="M11.4957 4.23541C11.4957 3.10831 11.0541 2.04593 10.2519 1.24384C9.4498 0.441742 8.38742 0 7.26041 0H4.75085C4.75085 0 4.75085 0 4.75076 0C3.62384 0 2.56146 0.441742 1.75946 1.24374C0.957367 2.04584 0.515625 3.10831 0.515625 4.23532V6.20792C0.515625 7.08069 0.78186 7.92032 1.28558 8.63599C1.72998 9.26733 2.32764 9.76044 3.02444 10.0732V11.2062C3.02444 11.7921 3.35248 11.9999 3.63336 12C3.83405 12 4.03482 11.9009 4.23019 11.7057L5.49243 10.4432H7.2605C8.38751 10.4432 9.44989 10.0015 10.252 9.1994C11.0541 8.39731 11.4958 7.33493 11.4958 6.20792L11.4957 4.23541ZM8.27197 7.57864L7.33997 8.51056C7.09644 8.75409 6.77179 8.88803 6.42572 8.88803C6.07965 8.88803 5.755 8.754 5.51147 8.51056L2.58252 5.58151C2.07852 5.07733 2.07852 4.25711 2.58252 3.75302L3.51453 2.82111C3.58044 2.7551 3.6698 2.71811 3.76309 2.71811C3.85629 2.71811 3.94574 2.7551 4.01166 2.82111L5.34302 4.15247C5.40894 4.21838 5.44592 4.30783 5.44592 4.40103C5.44592 4.49423 5.40894 4.58368 5.34293 4.6496L5.05902 4.9335L6.15948 6.03397L6.44348 5.74997C6.58081 5.61273 6.80338 5.61273 6.94061 5.75006L8.27197 7.08142C8.33798 7.14734 8.37497 7.23679 8.37497 7.32999C8.37497 7.42328 8.33798 7.51273 8.27197 7.57864ZM5.73944 3.41299C5.73944 3.2189 5.89682 3.06143 6.091 3.06143C7.30911 3.06143 8.30017 4.0524 8.30017 5.27042C8.30017 5.4646 8.14279 5.62198 7.94861 5.62198C7.75452 5.62198 7.59705 5.4646 7.59705 5.27042C7.59705 4.44012 6.92148 3.76456 6.091 3.76456C5.89682 3.76456 5.73944 3.60718 5.73944 3.41299ZM9.45474 5.62216C9.26056 5.62216 9.10318 5.46469 9.10318 5.2706C9.10327 4.46594 8.78989 3.70953 8.22098 3.14053C7.65198 2.57162 6.89557 2.25824 6.09091 2.25824C5.89682 2.25824 5.73935 2.10086 5.73935 1.90668C5.73935 1.71259 5.89682 1.55511 6.09091 1.55511C7.08334 1.55511 8.01636 1.94165 8.71811 2.6434C9.41995 3.34515 9.8064 4.27817 9.8063 5.2706C9.8063 5.46469 9.64893 5.62216 9.45474 5.62216Z"
				fill="#5D6C7B" />
		</g>
		<defs>
			<clipPath id="clip0_1_15970">
				<rect width="12" height="12" fill="white" />
			</clipPath>
		</defs>
	</symbol>

	<symbol id="icon-mark" viewBox="0 0 15 15">
		<path
			d="M11.9468 1.84193C10.7591 0.654143 9.1798 0 7.50008 0C5.82034 0 4.24111 0.654114 3.05327 1.84193C1.86551 3.02969 1.21136 4.60886 1.21136 6.2886C1.21136 7.96834 1.86551 9.54757 3.05327 10.7354L7.18936 14.8713C7.27517 14.9571 7.38764 15 7.50008 15C7.61255 15 7.72502 14.9571 7.8108 14.8713L11.9467 10.7354C13.1345 9.5476 13.7887 7.96837 13.7887 6.28863C13.7887 4.60883 13.1346 3.02966 11.9468 1.84193ZM9.47505 8.26351C8.94753 8.79103 8.24616 9.08157 7.50011 9.08157C6.75406 9.08157 6.05269 8.79106 5.5252 8.26354C4.99765 7.73602 4.70714 7.03465 4.70714 6.2886C4.70714 5.54258 4.99765 4.84121 5.5252 4.31366C6.05269 3.78614 6.75406 3.49563 7.50011 3.49563C8.24616 3.49563 8.94753 3.78614 9.47505 4.31366C10.0026 4.84115 10.2931 5.54252 10.2931 6.28857C10.2931 7.03462 10.0025 7.73602 9.47505 8.26351Z"
			fill="white" />
	</symbol>

	<symbol id="icon-accumulator" viewBox="0 0 18 14">
<path d="M16.5 1.50001V0.749988C16.5 0.336551 16.1638 0 15.75 0H13.5C13.0862 0 12.75 0.336551 12.75 0.749988V1.49998H12.5303L12.2198 1.18944C11.9407 0.91002 11.554 0.749988 11.1592 0.749988H6.84081C6.44604 0.749988 6.05932 0.91002 5.78025 1.18944L5.46971 1.49998H5.24999V0.749988C5.24999 0.336551 4.91382 0 4.5 0H2.25C1.83618 0 1.50001 0.336551 1.50001 0.749988V1.49998C0.673102 1.50001 0 2.17273 0 2.99999V12C0 12.8273 0.673102 13.5 1.50001 13.5H16.5C17.3269 13.5 18 12.8273 18 12V2.99999C18 2.17273 17.3269 1.50001 16.5 1.50001ZM4.12499 5.24999H2.62501C2.41773 5.24999 2.25 5.08226 2.25 4.87498C2.25 4.66773 2.41773 4.5 2.62501 4.5H4.12502C4.3323 4.5 4.50004 4.66773 4.50004 4.87501C4.5 5.08229 4.33227 5.24999 4.12499 5.24999ZM15.375 5.24999H15V5.625C15 5.83228 14.8322 6.00001 14.625 6.00001C14.4177 6.00001 14.25 5.83228 14.25 5.625V5.24999H13.8749C13.6677 5.24999 13.4999 5.08226 13.4999 4.87498C13.4999 4.6677 13.6677 4.49996 13.8749 4.49996H14.25V4.12495C14.25 3.91767 14.4177 3.74994 14.625 3.74994C14.8322 3.74994 15 3.91767 15 4.12495V4.5H15.375C15.5823 4.5 15.75 4.66773 15.75 4.87501C15.75 5.08229 15.5823 5.24999 15.375 5.24999Z" fill="#5D6C7B"/>
</symbol>

<symbol id="icon-timer" viewBox="0 0 15 18">
<path d="M12.9525 5.35819L14.0303 4.28044L12.9698 3.21956L11.8168 4.3725C10.7636 3.62609 9.5345 3.16607 8.25 3.0375V1.5H9.75V0H5.25V1.5H6.75V3.0375C5.46551 3.16607 4.23644 3.62609 3.18319 4.3725L2.03025 3.21956L0.969754 4.28044L2.0475 5.35819C1.04149 6.42334 0.369485 7.75982 0.114478 9.20259C-0.140528 10.6454 0.032632 12.1312 0.612575 13.4767C1.19252 14.8222 2.15384 15.9683 3.37783 16.7736C4.60182 17.5788 6.03487 18.008 7.5 18.008C8.96514 18.008 10.3982 17.5788 11.6222 16.7736C12.8462 15.9683 13.8075 14.8222 14.3874 13.4767C14.9674 12.1312 15.1405 10.6454 14.8855 9.20259C14.6305 7.75982 13.9585 6.42334 12.9525 5.35819ZM7.5 16.5C6.31332 16.5 5.15328 16.1481 4.16658 15.4888C3.17989 14.8295 2.41085 13.8925 1.95673 12.7961C1.5026 11.6997 1.38378 10.4933 1.61529 9.32946C1.8468 8.16557 2.41825 7.09647 3.25736 6.25736C4.09648 5.41824 5.16558 4.8468 6.32946 4.61529C7.49335 4.38378 8.69975 4.5026 9.79611 4.95672C10.8925 5.41085 11.8295 6.17988 12.4888 7.16658C13.1481 8.15327 13.5 9.31331 13.5 10.5C13.4982 12.0908 12.8655 13.6158 11.7407 14.7407C10.6158 15.8655 9.09076 16.4982 7.5 16.5Z" fill="#5D6C7B"/>
<path d="M7.49994 6.00015V10.5002H2.99994C2.99994 11.3902 3.26386 12.2602 3.75833 13.0002C4.25279 13.7402 4.9556 14.317 5.77786 14.6576C6.60013 14.9982 7.50493 15.0873 8.37785 14.9137C9.25076 14.7401 10.0526 14.3115 10.6819 13.6821C11.3113 13.0528 11.7398 12.251 11.9135 11.3781C12.0871 10.5051 11.998 9.60034 11.6574 8.77808C11.3168 7.95581 10.74 7.25301 10 6.75854C9.25998 6.26407 8.38996 6.00015 7.49994 6.00015Z" fill="#5D6C7B"/>
</symbol>

	<symbol id="icon-youtube" viewBox="0 0 24 24">
		<path d="M22.54 6.42a2.78 2.78 0 0 0-1.95-1.96C18.88 4 12 4 12 4s-6.88 0-8.59.46A2.78 2.78 0 0 0 1.46 6.42 29 29 0 0 0 1 12a29 29 0 0 0 .46 5.58A2.78 2.78 0 0 0 3.41 19.6C5.12 20 12 20 12 20s6.88 0 8.59-.46a2.78 2.78 0 0 0 1.95-1.95A29 29 0 0 0 23 12a29 29 0 0 0-.46-5.58z"/>
		<polygon points="9.75 15.02 15.5 12 9.75 8.98 9.75 15.02"/>
	</symbol>

	<symbol id="icon-balance" viewBox="0 0 24 24">
		<path d="M16 16l3.5-7 3.5 7c-.5 1.5-1.5 2.5-3.5 2.5S16.5 17.5 16 16z"/>
		<path d="M1 16l3.5-7 3.5 7C7.5 17.5 6.5 18.5 4.5 18.5S1.5 17.5 1 16z"/>
		<line x1="12" y1="3" x2="12" y2="21"/>
		<line x1="6" y1="5" x2="18" y2="5"/>
		<line x1="8" y1="21" x2="16" y2="21"/>
	</symbol>


</svg>
